<svg xmlns="http://www.w3.org/2000/svg" viewBox="0 0 392.58 60.31"><defs><style>.cls-1{fill:#545454;}.cls-2{fill:#008037;}</style></defs><g id="Layer_2" data-name="Layer 2"><g id="Layer_1-2" data-name="Layer 1"><path class="cls-1" d="M48.1,1.45l1.29,19.14H48.1Q45.54,12,40.76,8.22A17.9,17.9,0,0,0,29.3,4.44,18.72,18.72,0,0,0,19.17,7.28a18.86,18.86,0,0,0-7.11,9.07q-2.6,6.22-2.6,15.48a32.9,32.9,0,0,0,2.45,13.24,18.3,18.3,0,0,0,7.37,8.59,21.12,21.12,0,0,0,11.23,3,19.53,19.53,0,0,0,9.67-2.34Q44.36,52,49.39,45l1.29.83q-4.24,7.51-9.88,11a25,25,0,0,1-13.41,3.49q-14,0-21.66-10.38A29.67,29.67,0,0,1,0,31.75,32.24,32.24,0,0,1,3.78,16.27,27.33,27.33,0,0,1,14.17,5.33,28.2,28.2,0,0,1,28.64,1.45a26.49,26.49,0,0,1,12,3,6.57,6.57,0,0,0,2.49.91,2.74,2.74,0,0,0,2-.78,6.46,6.46,0,0,0,1.54-3.12Z"/><path class="cls-1" d="M74.87,19.88a16.87,16.87,0,0,1,13.87,6.56A20.12,20.12,0,0,1,93.18,39.3a24.28,24.28,0,0,1-2.45,10.34A17.42,17.42,0,0,1,74.42,60.18a16.11,16.11,0,0,1-13.66-6.85,21.19,21.19,0,0,1-4.27-12.95A22.94,22.94,0,0,1,59.08,30a17.74,17.74,0,0,1,6.83-7.64A17.47,17.47,0,0,1,74.87,19.88Zm-1.28,2.7a8.57,8.57,0,0,0-4.42,1.31,9.15,9.15,0,0,0-3.59,4.58,22,22,0,0,0-1.37,8.43,29.39,29.39,0,0,0,3.3,14.32q3.3,6,8.69,6a8.08,8.08,0,0,0,6.64-3.32q2.61-3.31,2.62-11.41,0-10.12-4.36-15.94A9,9,0,0,0,73.59,22.58Z"/><path class="cls-1" d="M132.11,21V44a57.42,57.42,0,0,0,.31,8.07,3.64,3.64,0,0,0,1,2,2.39,2.39,0,0,0,1.6.58,7.39,7.39,0,0,0,2.91-.7l.58,1.45-11.37,4.69h-1.87v-8q-4.91,5.31-7.47,6.68a11.47,11.47,0,0,1-5.44,1.37,8.69,8.69,0,0,1-5.54-1.85,9.56,9.56,0,0,1-3.26-4.75,28.64,28.64,0,0,1-.91-8.22v-17a8.37,8.37,0,0,0-.58-3.74,3.85,3.85,0,0,0-1.72-1.59,10,10,0,0,0-4.13-.52V21h13.32V46.44c0,3.54.61,5.87,1.85,7a6.45,6.45,0,0,0,4.46,1.66,9.34,9.34,0,0,0,4-1.12,22.15,22.15,0,0,0,5.38-4.28V28.14c0-2.16-.4-3.62-1.18-4.38s-2.43-1.17-4.92-1.22V21Z"/><path class="cls-1" d="M152.4,19.88v8.55q4.77-8.55,9.8-8.55A5.29,5.29,0,0,1,166,21.27a4.28,4.28,0,0,1,1.5,3.22,3.8,3.8,0,0,1-1.08,2.74,3.48,3.48,0,0,1-2.57,1.12,5.5,5.5,0,0,1-3.26-1.43,5.4,5.4,0,0,0-2.68-1.44,2.48,2.48,0,0,0-1.62.83,20.27,20.27,0,0,0-3.86,5.61V50.14a11.36,11.36,0,0,0,.79,4.77,4.32,4.32,0,0,0,1.91,1.87,8.37,8.37,0,0,0,3.94.74V59H139.58v-1.5a8.06,8.06,0,0,0,4.31-.91,3.53,3.53,0,0,0,1.46-2.12,22.42,22.42,0,0,0,.2-4V35.73a61.08,61.08,0,0,0-.27-7.9,3.11,3.11,0,0,0-1-1.85,2.81,2.81,0,0,0-1.81-.58,8.28,8.28,0,0,0-2.9.62l-.42-1.49,11.5-4.65Z"/><path class="cls-1" d="M194.16,19.88v13h-1.37q-1.59-6.1-4-8.3a9.09,9.09,0,0,0-6.29-2.2,7,7,0,0,0-4.69,1.53A4.46,4.46,0,0,0,176,27.27a6.18,6.18,0,0,0,1.32,4c.86,1.14,2.61,2.34,5.23,3.61l6.06,3Q197,41.92,197,48.64A10.26,10.26,0,0,1,193.1,57a13.64,13.64,0,0,1-8.78,3.17,30.15,30.15,0,0,1-8-1.24,8,8,0,0,0-2.24-.42,1.66,1.66,0,0,0-1.5,1.08h-1.36V46h1.36q1.17,5.8,4.45,8.76a10.71,10.71,0,0,0,7.34,2.94,6.58,6.58,0,0,0,4.67-1.68,5.35,5.35,0,0,0,1.81-4,6.42,6.42,0,0,0-2-4.81q-2-1.95-8-4.94T173,36.86a9.33,9.33,0,0,1-1.87-6A10.54,10.54,0,0,1,174.3,23a11.37,11.37,0,0,1,8.32-3.15,19.75,19.75,0,0,1,5.43.95,12.85,12.85,0,0,0,2.83.63,1.64,1.64,0,0,0,1-.29,4.25,4.25,0,0,0,.88-1.29Z"/><path class="cls-1" d="M209.06,35.32q0,8.46,4.1,13.28a12.55,12.55,0,0,0,9.76,4.82,10.56,10.56,0,0,0,6.49-2.06c1.84-1.37,3.39-3.71,4.63-7l1.29.83a19.73,19.73,0,0,1-5.07,10.35,13.52,13.52,0,0,1-10.5,4.67A15.35,15.35,0,0,1,208,54.85q-4.87-5.34-4.88-14.34,0-9.75,5-15.21a16.32,16.32,0,0,1,12.56-5.46,14,14,0,0,1,10.5,4.21q4.11,4.22,4.11,11.27Zm0-2.41h17.59a16.35,16.35,0,0,0-.87-5.14,8.27,8.27,0,0,0-3.09-3.66,7.83,7.83,0,0,0-4.3-1.32,8.57,8.57,0,0,0-6.16,2.67A11.62,11.62,0,0,0,209.06,32.91Z"/><path class="cls-2" d="M276.71,59H235l.58-1.54a14.58,14.58,0,0,0,4.44-.54A5.65,5.65,0,0,0,242.59,55a27,27,0,0,0,2.74-6.89l9.92-34.24a24.89,24.89,0,0,0,1.24-6.22,2.91,2.91,0,0,0-1.14-2.45q-1.14-.87-4.29-.87a10.59,10.59,0,0,1-1.12-.05l.49-1.53h23l-.34,1.53a14.14,14.14,0,0,0-5.47.75,6.38,6.38,0,0,0-2.7,2.45q-.75,1.13-2.45,7L252.68,48.1a22.77,22.77,0,0,0-1.13,5.32,2.51,2.51,0,0,0,1.13,1.9c.47.42,1.53.63,3.19.63h5.44a24.3,24.3,0,0,0,9.42-1.5,14.49,14.49,0,0,0,4.73-3.36,44.83,44.83,0,0,0,4.11-6.18L280.65,43h1.54Z"/><path class="cls-2" d="M304.56,21.46l-8.22,29.09a21.09,21.09,0,0,0-.83,3.53,1.52,1.52,0,0,0,.39,1.08,1.23,1.23,0,0,0,.93.41,2.65,2.65,0,0,0,1.5-.66,24.93,24.93,0,0,0,4.77-5.31l1.46.95a29.51,29.51,0,0,1-6.64,7.26,8.93,8.93,0,0,1-5.4,2.2,3.87,3.87,0,0,1-2.78-1,3.36,3.36,0,0,1-1.08-2.55,20.88,20.88,0,0,1,1-5.11l5.39-18.59A29.77,29.77,0,0,0,296.42,27a1.93,1.93,0,0,0-.64-1.5,2.58,2.58,0,0,0-1.77-.58,31.94,31.94,0,0,0-3.77.46V23.78ZM304,5A4,4,0,0,1,307,6.18a4,4,0,0,1,1.21,3,4.15,4.15,0,0,1-8.3,0A4.1,4.1,0,0,1,304,5Z"/><path class="cls-2" d="M327.38,21.46l-5.52,18.88q7.77-11.58,11.89-15.23c2.76-2.43,5.4-3.65,7.95-3.65a4.56,4.56,0,0,1,3.42,1.37,4.86,4.86,0,0,1,1.35,3.57,25.36,25.36,0,0,1-1.2,6.64l-5.06,17.47a21.66,21.66,0,0,0-.88,3.69,1.48,1.48,0,0,0,.34,1,.92.92,0,0,0,.7.39,2.16,2.16,0,0,0,1.21-.54,27.73,27.73,0,0,0,4.81-5.31l1.29.79a31.34,31.34,0,0,1-7.31,7.89A8,8,0,0,1,336.06,60a3.27,3.27,0,0,1-2.45-.93,3.43,3.43,0,0,1-.92-2.51,28.71,28.71,0,0,1,1.42-6.85L338.92,33a18.57,18.57,0,0,0,.91-4.86,1.8,1.8,0,0,0-.54-1.35,1.86,1.86,0,0,0-1.32-.52,5.64,5.64,0,0,0-2.79,1,25.13,25.13,0,0,0-6.39,6.16,88,88,0,0,0-7,11,40.66,40.66,0,0,0-3.24,7.72L316.47,59h-6.23l7.55-26a33.66,33.66,0,0,0,1.33-5.65,2.15,2.15,0,0,0-.72-1.6,2.57,2.57,0,0,0-1.81-.68,16,16,0,0,0-1.74.17l-1.58.24L313,24Z"/><path class="cls-2" d="M375.44,0,363.66,40.8l4.73-4q7.75-6.56,10.08-9.71a3.19,3.19,0,0,0,.75-1.58,1.11,1.11,0,0,0-.25-.7,1.82,1.82,0,0,0-1-.54,10.6,10.6,0,0,0-2.56-.21H374l.46-1.58h18.13L392.17,24a19,19,0,0,0-5.38,1,16.89,16.89,0,0,0-4.37,2.38q-4.2,3.12-5.52,4.32l-3.57,3.15q.9,3,2.24,8.35a87.74,87.74,0,0,0,3,10.54c.52,1.1,1.06,1.66,1.62,1.66a3,3,0,0,0,1.66-.71,22,22,0,0,0,4.6-5l1.46,1A45.91,45.91,0,0,1,381,58.21a7.57,7.57,0,0,1-4.39,1.8,3.08,3.08,0,0,1-2.7-1.36q-1.67-2.46-5.52-19.3l-5.69,4.93L358.43,59H352l13.78-47.36,1.16-4a9.33,9.33,0,0,0,.21-1.83,2.11,2.11,0,0,0-.77-1.66,3.31,3.31,0,0,0-2.22-.66,17.12,17.12,0,0,0-3,.41V2.45Z"/></g></g></svg>